<?xml version="1.0" encoding="UTF-8" standalone="no"?>
<!-- Created with Inkscape (http://www.inkscape.org/) -->

<svg
   xmlns:dc="http://purl.org/dc/elements/1.1/"
   xmlns:cc="http://creativecommons.org/ns#"
   xmlns:rdf="http://www.w3.org/1999/02/22-rdf-syntax-ns#"
   xmlns:svg="http://www.w3.org/2000/svg"
   xmlns="http://www.w3.org/2000/svg"
   xmlns:xlink="http://www.w3.org/1999/xlink"
   xmlns:sodipodi="http://sodipodi.sourceforge.net/DTD/sodipodi-0.dtd"
   xmlns:inkscape="http://www.inkscape.org/namespaces/inkscape"
   width="480"
   height="480"
   id="svg2"
   version="1.1"
   inkscape:version="0.48.5 r10040"
   sodipodi:docname="dcn.svg"
   inkscape:export-filename="/Users/bod/Tmp/dcn.png"
   inkscape:export-xdpi="300"
   inkscape:export-ydpi="300">
  <sodipodi:namedview
     id="base"
     pagecolor="#ff21ff"
     bordercolor="#666666"
     borderopacity="1.0"
     inkscape:pageopacity="0.24705882"
     inkscape:pageshadow="2"
     inkscape:zoom="1.007481"
     inkscape:cx="377.04536"
     inkscape:cy="299.09713"
     inkscape:document-units="px"
     inkscape:current-layer="layer1"
     showgrid="false"
     width="480px"
     inkscape:window-width="1440"
     inkscape:window-height="851"
     inkscape:window-x="0"
     inkscape:window-y="0"
     inkscape:window-maximized="1" />
  <defs
     id="defs4">
    <linearGradient
       id="linearGradient8019">
      <stop
         style="stop-color:#0097a7;stop-opacity:1;"
         offset="0"
         id="stop8021" />
      <stop
         style="stop-color:#0097a7;stop-opacity:0;"
         offset="1"
         id="stop8023" />
    </linearGradient>
    <clipPath
       clipPathUnits="userSpaceOnUse"
       id="clipPath7605">
      <path
         id="path7607"
         d="m 480,812.3622 c 0,132.54835 -107.45166,240 -240,240 C 107.45166,1052.3622 7.9953317e-8,944.91055 7.9953317e-8,812.3622 7.9953317e-8,679.81386 107.45166,572.3622 240,572.3622 c 132.54834,0 240,107.45166 240,240 z"
         style="fill:#00bcd4;fill-opacity:1;fill-rule:evenodd;stroke:none"
         inkscape:connector-curvature="0" />
    </clipPath>
    <clipPath
       clipPathUnits="userSpaceOnUse"
       id="clipPath7611">
      <path
         id="path7613"
         d="m 480,812.3622 c 0,132.54835 -107.45166,240 -240,240 C 107.45166,1052.3622 7.9953317e-8,944.91055 7.9953317e-8,812.3622 7.9953317e-8,679.81386 107.45166,572.3622 240,572.3622 c 132.54834,0 240,107.45166 240,240 z"
         style="fill:#00bcd4;fill-opacity:1;fill-rule:evenodd;stroke:none"
         inkscape:connector-curvature="0" />
    </clipPath>
    <linearGradient
       inkscape:collect="always"
       xlink:href="#linearGradient8019"
       id="linearGradient8025"
       x1="195.23589"
       y1="679.47607"
       x2="405.14575"
       y2="983.00586"
       gradientUnits="userSpaceOnUse" />
    <filter
       style="color-interpolation-filters:sRGB;"
       inkscape:label="Drop Shadow"
       id="filter8069">
      <feFlood
         flood-opacity="0.2"
         flood-color="rgb(0,0,0)"
         result="flood"
         id="feFlood8071" />
      <feComposite
         in="flood"
         in2="SourceGraphic"
         operator="in"
         result="composite1"
         id="feComposite8073" />
      <feGaussianBlur
         in="composite"
         stdDeviation="3"
         result="blur"
         id="feGaussianBlur8075" />
      <feOffset
         dx="0"
         dy="3"
         result="offset"
         id="feOffset8077" />
      <feComposite
         in="SourceGraphic"
         in2="offset"
         operator="over"
         result="composite2"
         id="feComposite8079" />
    </filter>
    <filter
       style="color-interpolation-filters:sRGB;"
       inkscape:label="Drop Shadow"
       id="filter8081">
      <feFlood
         flood-opacity="0.2"
         flood-color="rgb(0,0,0)"
         result="flood"
         id="feFlood8083" />
      <feComposite
         in="flood"
         in2="SourceGraphic"
         operator="in"
         result="composite1"
         id="feComposite8085" />
      <feGaussianBlur
         in="composite"
         stdDeviation="3"
         result="blur"
         id="feGaussianBlur8087" />
      <feOffset
         dx="0"
         dy="3"
         result="offset"
         id="feOffset8089" />
      <feComposite
         in="SourceGraphic"
         in2="offset"
         operator="over"
         result="composite2"
         id="feComposite8091" />
    </filter>
    <filter
       style="color-interpolation-filters:sRGB;"
       inkscape:label="Drop Shadow"
       id="filter8189">
      <feFlood
         flood-opacity="0.2"
         flood-color="rgb(0,0,0)"
         result="flood"
         id="feFlood8191" />
      <feComposite
         in="flood"
         in2="SourceGraphic"
         operator="in"
         result="composite1"
         id="feComposite8193" />
      <feGaussianBlur
         in="composite"
         stdDeviation="2"
         result="blur"
         id="feGaussianBlur8195" />
      <feOffset
         dx="0"
         dy="2"
         result="offset"
         id="feOffset8197" />
      <feComposite
         in="SourceGraphic"
         in2="offset"
         operator="over"
         result="composite2"
         id="feComposite8199" />
    </filter>
    <filter
       style="color-interpolation-filters:sRGB;"
       inkscape:label="Drop Shadow"
       id="filter8201">
      <feFlood
         flood-opacity="0.2"
         flood-color="rgb(0,0,0)"
         result="flood"
         id="feFlood8203" />
      <feComposite
         in="flood"
         in2="SourceGraphic"
         operator="in"
         result="composite1"
         id="feComposite8205" />
      <feGaussianBlur
         in="composite"
         stdDeviation="2"
         result="blur"
         id="feGaussianBlur8207" />
      <feOffset
         dx="0"
         dy="2"
         result="offset"
         id="feOffset8209" />
      <feComposite
         in="SourceGraphic"
         in2="offset"
         operator="over"
         result="composite2"
         id="feComposite8211" />
    </filter>
    <filter
       style="color-interpolation-filters:sRGB;"
       inkscape:label="Drop Shadow"
       id="filter8213">
      <feFlood
         flood-opacity="0.2"
         flood-color="rgb(0,0,0)"
         result="flood"
         id="feFlood8215" />
      <feComposite
         in="flood"
         in2="SourceGraphic"
         operator="in"
         result="composite1"
         id="feComposite8217" />
      <feGaussianBlur
         in="composite"
         stdDeviation="2"
         result="blur"
         id="feGaussianBlur8219" />
      <feOffset
         dx="0"
         dy="2"
         result="offset"
         id="feOffset8221" />
      <feComposite
         in="SourceGraphic"
         in2="offset"
         operator="over"
         result="composite2"
         id="feComposite8223" />
    </filter>
    <filter
       style="color-interpolation-filters:sRGB;"
       inkscape:label="Drop Shadow"
       id="filter8225">
      <feFlood
         flood-opacity="0.2"
         flood-color="rgb(0,0,0)"
         result="flood"
         id="feFlood8227" />
      <feComposite
         in="flood"
         in2="SourceGraphic"
         operator="in"
         result="composite1"
         id="feComposite8229" />
      <feGaussianBlur
         in="composite"
         stdDeviation="2"
         result="blur"
         id="feGaussianBlur8231" />
      <feOffset
         dx="0"
         dy="2"
         result="offset"
         id="feOffset8233" />
      <feComposite
         in="SourceGraphic"
         in2="offset"
         operator="over"
         result="composite2"
         id="feComposite8235" />
    </filter>
  </defs>
  <metadata
     id="metadata7">
    <rdf:RDF>
      <cc:Work
         rdf:about="">
        <dc:format>image/svg+xml</dc:format>
        <dc:type
           rdf:resource="http://purl.org/dc/dcmitype/StillImage" />
        <dc:title></dc:title>
      </cc:Work>
    </rdf:RDF>
  </metadata>
  <g
     inkscape:label="Layer 1"
     inkscape:groupmode="layer"
     id="layer1"
     transform="translate(0,-572.3622)">
    <path
       inkscape:connector-curvature="0"
       d="m 240.00001,596.09111 c -51.8048,0 -93.70376,41.89896 -93.70376,93.70376 0,70.27782 93.70376,174.02127 93.70376,174.02127 0,0 93.70376,-103.74345 93.70376,-174.02127 0,-51.8048 -41.89897,-93.70376 -93.70376,-93.70376 z m 0,127.16939 c -18.47304,0 -33.46563,-14.9926 -33.46563,-33.46563 0,-18.47303 14.99259,-33.46563 33.46563,-33.46563 18.47302,0 33.46563,14.9926 33.46563,33.46563 0,18.47303 -14.99261,33.46563 -33.46563,33.46563 z"
       id="path3164"
       style="fill:#ffffff;" />
    <path
       style="fill:#ffffff;fill-opacity:1;"
       d="M 122.71875 306.46875 C 112.12037 306.46875 103.59375 314.99537 103.59375 325.59375 L 103.59375 397.125 C 103.59375 407.72338 112.12037 416.28125 122.71875 416.28125 L 357.28125 416.28125 C 367.87963 416.28125 376.40625 407.72338 376.40625 397.125 L 376.40625 325.59375 C 376.40625 314.99537 367.87963 306.46875 357.28125 306.46875 L 122.71875 306.46875 z M 146.9375 344.59375 C 156.19672 344.59375 163.71875 352.11578 163.71875 361.375 C 163.71875 370.63422 156.19672 378.125 146.9375 378.125 C 137.67828 378.125 130.1875 370.63422 130.1875 361.375 C 130.1875 352.11578 137.67828 344.59375 146.9375 344.59375 z M 208.96875 344.59375 C 218.22797 344.59375 225.75 352.11578 225.75 361.375 C 225.75 370.63422 218.22797 378.125 208.96875 378.125 C 199.70953 378.125 192.21875 370.63422 192.21875 361.375 C 192.21875 352.11578 199.70953 344.59375 208.96875 344.59375 z M 271.03125 344.59375 C 280.29047 344.59375 287.78125 352.11578 287.78125 361.375 C 287.78125 370.63422 280.29047 378.125 271.03125 378.125 C 261.77203 378.125 254.25 370.63422 254.25 361.375 C 254.25 352.11578 261.77203 344.59375 271.03125 344.59375 z M 333.0625 344.59375 C 342.32172 344.59375 349.8125 352.11578 349.8125 361.375 C 349.8125 370.63422 342.32172 378.125 333.0625 378.125 C 323.80328 378.125 316.28125 370.63422 316.28125 361.375 C 316.28125 352.11578 323.80328 344.59375 333.0625 344.59375 z "
       transform="translate(0,572.3622)"
       id="rect3950" />
  </g>
</svg>
